<svg width="20" height="20" viewBox="0 0 20 20" fill="none" xmlns="http://www.w3.org/2000/svg">
<path d="M9.99439 3.44539e-08C8.01658 3.44539e-08 6.08318 0.58649 4.43869 1.6853C2.7942 2.78412 1.51247 4.3459 0.755594 6.17317C-0.00128239 8.00043 -0.199316 10.0111 0.186536 11.9509C0.572389 13.8907 1.5248 15.6725 2.92332 17.0711C4.32185 18.4696 6.10368 19.422 8.04349 19.8079C9.9833 20.1937 11.994 19.9957 13.8212 19.2388C15.6485 18.4819 17.2103 17.2002 18.3091 15.5557C19.4079 13.9112 19.9944 11.9778 19.9944 10C19.9945 8.68675 19.7359 7.38634 19.2334 6.17304C18.7309 4.95973 17.9943 3.8573 17.0657 2.92869C16.1371 2.00008 15.0347 1.26349 13.8214 0.760983C12.608 0.258474 11.3076 -0.000108979 9.99439 3.44539e-08ZM13.1739 15.1525C13.1365 15.2458 13.0795 15.33 13.0069 15.3996C12.9342 15.4691 12.8475 15.5223 12.7527 15.5556C12.6578 15.5889 12.5569 15.6015 12.4567 15.5926C12.3565 15.5837 12.2594 15.5535 12.1719 15.504L9.45723 13.3946L7.71491 15.002C7.67448 15.0319 7.62719 15.0511 7.57739 15.0579C7.52758 15.0647 7.47687 15.0589 7.42991 15.0409L7.76391 12.0525L7.7746 12.061L7.78143 12.002C7.78143 12.002 12.6664 7.55445 12.8654 7.36496C13.0669 7.17596 13.0004 7.13496 13.0004 7.13496C13.0119 6.90443 12.6389 7.13496 12.6389 7.13496L6.16639 11.299L3.4709 10.381C3.4709 10.381 3.0569 10.2325 3.0179 9.906C2.9769 9.582 3.48439 9.406 3.48439 9.406L14.2014 5.14849C14.2014 5.14849 15.0824 4.75597 15.0824 5.406L13.1739 15.1525Z" fill="white"/>
</svg>
