<svg width="1440" height="1161" viewBox="0 0 1440 1161" fill="none" xmlns="http://www.w3.org/2000/svg">
<g filter="url(#filter0_f_3_135)">
<ellipse cx="213.664" cy="308.023" rx="213.664" ry="308.023" transform="matrix(-0.419122 -0.701014 1.13461 -0.288044 207.012 602.09)" fill="#A7C3F9"/>
</g>
<mask id="mask0_3_135" style="mask-type:alpha" maskUnits="userSpaceOnUse" x="-186" y="-209" width="1289" height="966">
<path d="M1102.98 -13.4162L296.223 -208.171L-133.859 254.547L-185.545 403.262L187.799 719.571L568.029 756.84L878.941 346.823L1102.98 -13.4162Z" fill="url(#paint0_linear_3_135)"/>
</mask>
<g mask="url(#mask0_3_135)">
<mask id="mask1_3_135" style="mask-type:alpha" maskUnits="userSpaceOnUse" x="-276" y="-233" width="1387" height="1022">
<path d="M525.145 788.788C169.993 674.048 -257.615 502.9 -275.881 497.949L284.053 -232.673L1110.79 -17.3048L525.145 788.788Z" fill="url(#paint1_linear_3_135)"/>
</mask>
<g mask="url(#mask1_3_135)">
<path d="M68.2985 273.758C129.111 193.561 307.52 167.115 421.628 203.856C535.736 240.597 660.865 321.277 595.619 407.321C563.286 449.961 600.306 526.293 505.068 558.656C408.119 591.6 261.382 529.764 203.82 511.23C89.7116 474.489 7.48583 353.955 68.2985 273.758Z" fill="#E3BFF4"/>
<g filter="url(#filter1_f_3_135)">
<path d="M77.3434 277.865C142.564 191.856 288.055 162.118 376.645 190.642C465.235 219.167 556.886 289.051 491.666 375.06C459.346 417.682 481.627 489.242 399.113 525.676C315.116 562.765 203.179 512.14 158.49 497.75C69.8999 469.226 12.1232 363.875 77.3434 277.865Z" fill="#E3BFF4"/>
</g>
<g filter="url(#filter2_f_3_135)">
<path d="M79.3183 275.262C152.417 178.862 326.748 149.158 436.138 184.38C545.527 219.602 661.502 302.194 588.402 398.594C552.178 446.365 594.355 532.11 496.844 571.326C397.581 611.246 249.096 547.092 193.915 529.325C84.5254 494.103 6.2192 371.662 79.3183 275.262Z" fill="#E3BFF4"/>
</g>
<g filter="url(#filter3_f_3_135)">
<path d="M123.513 275.603C243.426 166.135 475.024 118.048 616.551 163.617C758.078 209.187 865.269 318.858 777.601 434.471C734.157 491.762 832.559 615.077 710.467 660.452C586.181 706.641 332.9 616.548 261.507 593.561C119.979 547.992 -15.3992 402.416 123.513 275.603Z" fill="#E3BFF4"/>
</g>
<g filter="url(#filter4_f_3_135)">
<path d="M183.022 255.977C277.418 131.493 547.768 74.1463 686.14 118.7C824.512 163.253 924.777 276.462 830.382 400.947C783.604 462.635 779.616 554.539 655.134 605.643C528.416 657.665 213.914 601.664 144.113 579.189C5.74046 534.636 88.627 380.462 183.022 255.977Z" fill="#E3BFF4"/>
</g>
<g filter="url(#filter5_f_3_135)">
<path d="M281.736 216.421C379.285 87.7774 649.766 37.0802 791.293 82.6496C932.82 128.219 1034.85 244.699 937.299 373.342C888.959 437.091 625.315 470.627 497.405 523.673C367.197 577.673 187.466 497.991 116.072 475.003C-25.455 429.434 184.187 345.064 281.736 216.421Z" fill="#E3BFF4"/>
</g>
<g filter="url(#filter6_f_3_135)">
<path d="M185.86 305.932C271.215 193.369 531.198 156.515 672.725 202.085C814.253 247.654 922.652 355.732 837.297 468.295C794.999 524.075 781.289 603.924 660.558 647.503C537.658 691.865 356.265 614.375 284.871 591.387C143.344 545.818 100.504 418.494 185.86 305.932Z" fill="#E3BFF4"/>
</g>
</g>
</g>
<mask id="mask2_3_135" style="mask-type:alpha" maskUnits="userSpaceOnUse" x="51" y="-6" width="1557" height="708">
<path d="M51.2979 591.564C97.6253 335.025 156.803 7.77218 157.554 -5.12171L1607.69 104.53L1501.43 701.215L51.2979 591.564Z" fill="url(#paint2_linear_3_135)"/>
</mask>
<g mask="url(#mask2_3_135)">
<path d="M814.123 150.667C977.679 163.034 1098.83 265.326 1084.16 347.711C1069.49 430.096 984.026 533.205 808.544 519.937C721.584 513.361 606.192 560.45 510.182 511.611C412.447 461.896 456.371 351.341 463.772 309.782C478.443 227.397 650.567 138.299 814.123 150.667Z" fill="#FF3E80" fill-opacity="0.5"/>
<g filter="url(#filter7_f_3_135)">
<path d="M810.905 157.574C986.316 170.838 1097.79 259.319 1085.18 330.135C1072.56 400.951 989.835 488.879 814.424 475.615C727.5 469.043 613.2 510.242 516.206 467.169C417.47 423.321 458.574 328.545 464.936 292.822C477.546 222.007 635.495 144.311 810.905 157.574Z" fill="#FF3E80" fill-opacity="0.5"/>
</g>
<g filter="url(#filter8_f_3_135)">
<path d="M816.22 157.977C1012.82 172.843 1136.18 280.866 1120.63 368.173C1105.09 455.48 1010.51 564.446 813.906 549.58C716.481 542.213 585.943 602.035 477.936 549.805C367.988 496.638 417.301 372.203 425.144 328.161C440.691 240.854 619.619 143.111 816.22 157.977Z" fill="#FF3E80" fill-opacity="0.5"/>
</g>
<g filter="url(#filter9_f_3_135)">
<path d="M837.068 170.033C1075.99 209.803 1256.88 338.243 1238.68 440.424C1220.49 542.605 1077.62 643.753 841.835 625.924C724.993 617.089 554.959 717.098 425.202 655.718C293.114 593.234 350.064 456.301 359.243 404.756C377.439 302.574 560.296 123.962 837.068 170.033Z" fill="#FF3E80" fill-opacity="0.5"/>
</g>
<g filter="url(#filter10_f_3_135)">
<path d="M911.485 217.57C1165.36 236.767 1360.48 384.944 1342.69 484.847C1324.9 584.751 1173.01 682.721 919.135 663.524C793.327 654.011 633.782 680.588 493.171 619.536C350.033 557.387 408.895 423.747 417.869 373.351C435.66 273.448 657.608 198.373 911.485 217.57Z" fill="#FF3E80" fill-opacity="0.5"/>
</g>
<g filter="url(#filter11_f_3_135)">
<path d="M1003.19 264.919C1265.55 284.757 1467.44 436.488 1449.24 538.669C1431.04 640.851 1274.29 740.948 1011.93 721.11C881.919 711.28 717.117 738.339 571.713 675.776C423.698 612.088 484.269 475.429 493.448 423.883C511.644 321.702 740.836 245.081 1003.19 264.919Z" fill="#FF3E80" fill-opacity="0.5"/>
</g>
<g filter="url(#filter12_f_3_135)">
<path d="M808.759 233.749C1038.32 251.107 1211.97 400.703 1193.78 502.885C1175.58 605.066 1035.96 706.46 806.397 689.101C692.637 680.499 549.671 697.236 423.576 636.132C295.216 573.93 351.318 436.933 360.497 385.388C378.693 283.206 579.195 216.391 808.759 233.749Z" fill="#FF3E80" fill-opacity="0.5"/>
</g>
</g>
<mask id="mask3_3_135" style="mask-type:alpha" maskUnits="userSpaceOnUse" x="158" y="8" width="1012" height="900">
<path d="M158.473 76.0057C561.747 44.7399 1001.93 10.7232 1021.85 8.30046L1169.87 839.393L306.492 907.098L158.473 76.0057Z" fill="url(#paint3_linear_3_135)"/>
</mask>
<g mask="url(#mask3_3_135)">
<path d="M981.882 377.093C992.639 435.339 909.242 491.56 826.367 498.059C743.492 504.558 630.379 489.509 618.838 427.016C613.118 396.047 550.774 362.79 585.249 322.761C620.344 282.013 734.948 281.666 776.754 278.387C859.63 271.888 971.125 318.847 981.882 377.093Z" fill="#E3BFF4"/>
<g filter="url(#filter13_f_3_135)">
<path d="M974.655 376.953C986.192 439.42 922.68 489.754 858.339 494.8C793.997 499.845 705.208 482.898 693.671 420.431C687.954 389.475 636.329 355.393 661.577 316.103C687.28 276.106 776.606 277.738 809.063 275.193C873.404 270.147 963.119 314.485 974.655 376.953Z" fill="#E3BFF4"/>
</g>
<g filter="url(#filter14_f_3_135)">
<path d="M975.004 378.843C987.934 448.857 908.57 505.914 829.121 512.144C749.673 518.374 640.534 500.134 627.603 430.12C621.196 395.425 550.84 358.206 582.79 313.882C615.315 268.763 732.154 269.28 772.232 266.137C851.68 259.907 962.073 308.829 975.004 378.843Z" fill="#E3BFF4"/>
</g>
<g filter="url(#filter15_f_3_135)">
<path d="M950.551 388.986C944.972 477.117 844.285 557.652 741.496 565.713C638.707 573.773 519.484 538.613 503.977 454.646C496.292 413.036 374.384 368.33 416.441 314.88C459.254 260.47 647.909 250.733 699.761 246.667C802.551 238.607 957.014 286.891 950.551 388.986Z" fill="#E3BFF4"/>
</g>
<g filter="url(#filter16_f_3_135)">
<path d="M928.681 413.671C945.378 504.082 828.511 598.759 728.014 606.64C627.516 614.521 510.148 575.8 493.451 485.389C485.177 440.586 436.777 389.194 476.992 332.039C517.929 273.858 721.431 231.094 772.127 227.119C872.625 219.238 911.984 323.26 928.681 413.671Z" fill="#E3BFF4"/>
</g>
<g filter="url(#filter17_f_3_135)">
<path d="M896.258 458.463C913.513 551.894 792.914 642.951 690.125 651.011C587.336 659.072 467.199 618.967 449.944 525.535C441.393 479.235 567.685 399.199 608.713 340.177C650.478 280.094 793.021 281.834 844.873 277.767C947.662 269.707 879.003 365.031 896.258 458.463Z" fill="#E3BFF4"/>
</g>
<g filter="url(#filter18_f_3_135)">
<path d="M899.625 386.907C914.723 468.66 792.268 549.662 689.479 557.723C586.689 565.783 467.68 531.781 452.582 450.028C445.1 409.515 408.673 362.47 450.971 310.324C494.028 257.241 636.278 257.388 688.13 253.322C790.919 245.261 884.527 305.154 899.625 386.907Z" fill="#E3BFF4"/>
</g>
</g>
<defs>
<filter id="filter0_f_3_135" x="-142.453" y="-59.0672" width="1218.8" height="845.302" filterUnits="userSpaceOnUse" color-interpolation-filters="sRGB">
<feFlood flood-opacity="0" result="BackgroundImageFix"/>
<feBlend mode="normal" in="SourceGraphic" in2="BackgroundImageFix" result="shape"/>
<feGaussianBlur stdDeviation="124.268" result="effect1_foregroundBlur_3_135"/>
</filter>
<filter id="filter1_f_3_135" x="39.4234" y="170.198" width="484.25" height="378.739" filterUnits="userSpaceOnUse" color-interpolation-filters="sRGB">
<feFlood flood-opacity="0" result="BackgroundImageFix"/>
<feBlend mode="normal" in="SourceGraphic" in2="BackgroundImageFix" result="shape"/>
<feGaussianBlur stdDeviation="4.97072" result="effect1_foregroundBlur_3_135"/>
</filter>
<filter id="filter2_f_3_135" x="16.057" y="135.29" width="630.018" height="483.69" filterUnits="userSpaceOnUse" color-interpolation-filters="sRGB">
<feFlood flood-opacity="0" result="BackgroundImageFix"/>
<feBlend mode="normal" in="SourceGraphic" in2="BackgroundImageFix" result="shape"/>
<feGaussianBlur stdDeviation="17.3975" result="effect1_foregroundBlur_3_135"/>
</filter>
<filter id="filter3_f_3_135" x="15.5946" y="96.7843" width="843.437" height="626.362" filterUnits="userSpaceOnUse" color-interpolation-filters="sRGB">
<feFlood flood-opacity="0" result="BackgroundImageFix"/>
<feBlend mode="normal" in="SourceGraphic" in2="BackgroundImageFix" result="shape"/>
<feGaussianBlur stdDeviation="24.8536" result="effect1_foregroundBlur_3_135"/>
</filter>
<filter id="filter4_f_3_135" x="-63.5024" y="-30.5047" width="1065.07" height="791.832" filterUnits="userSpaceOnUse" color-interpolation-filters="sRGB">
<feFlood flood-opacity="0" result="BackgroundImageFix"/>
<feBlend mode="normal" in="SourceGraphic" in2="BackgroundImageFix" result="shape"/>
<feGaussianBlur stdDeviation="67.1047" result="effect1_foregroundBlur_3_135"/>
</filter>
<filter id="filter5_f_3_135" x="-264.588" y="-266.818" width="1573.45" height="1141.95" filterUnits="userSpaceOnUse" color-interpolation-filters="sRGB">
<feFlood flood-opacity="0" result="BackgroundImageFix"/>
<feBlend mode="normal" in="SourceGraphic" in2="BackgroundImageFix" result="shape"/>
<feGaussianBlur stdDeviation="166.519" result="effect1_foregroundBlur_3_135"/>
</filter>
<filter id="filter6_f_3_135" x="-12.0127" y="28.9528" width="1033.61" height="786.111" filterUnits="userSpaceOnUse" color-interpolation-filters="sRGB">
<feFlood flood-opacity="0" result="BackgroundImageFix"/>
<feBlend mode="normal" in="SourceGraphic" in2="BackgroundImageFix" result="shape"/>
<feGaussianBlur stdDeviation="77.0461" result="effect1_foregroundBlur_3_135"/>
</filter>
<filter id="filter7_f_3_135" x="441.123" y="146.142" width="654.963" height="350.888" filterUnits="userSpaceOnUse" color-interpolation-filters="sRGB">
<feFlood flood-opacity="0" result="BackgroundImageFix"/>
<feBlend mode="normal" in="SourceGraphic" in2="BackgroundImageFix" result="shape"/>
<feGaussianBlur stdDeviation="4.97072" result="effect1_foregroundBlur_3_135"/>
</filter>
<filter id="filter8_f_3_135" x="372.564" y="121.673" width="784.182" height="484.536" filterUnits="userSpaceOnUse" color-interpolation-filters="sRGB">
<feFlood flood-opacity="0" result="BackgroundImageFix"/>
<feBlend mode="normal" in="SourceGraphic" in2="BackgroundImageFix" result="shape"/>
<feGaussianBlur stdDeviation="17.3975" result="effect1_foregroundBlur_3_135"/>
</filter>
<filter id="filter9_f_3_135" x="289.485" y="112.877" width="1000.17" height="612.591" filterUnits="userSpaceOnUse" color-interpolation-filters="sRGB">
<feFlood flood-opacity="0" result="BackgroundImageFix"/>
<feBlend mode="normal" in="SourceGraphic" in2="BackgroundImageFix" result="shape"/>
<feGaussianBlur stdDeviation="24.8536" result="effect1_foregroundBlur_3_135"/>
</filter>
<filter id="filter10_f_3_135" x="264.097" y="80.351" width="1213.93" height="719.809" filterUnits="userSpaceOnUse" color-interpolation-filters="sRGB">
<feFlood flood-opacity="0" result="BackgroundImageFix"/>
<feBlend mode="normal" in="SourceGraphic" in2="BackgroundImageFix" result="shape"/>
<feGaussianBlur stdDeviation="67.1047" result="effect1_foregroundBlur_3_135"/>
</filter>
<filter id="filter11_f_3_135" x="140.402" y="-71.2608" width="1643.02" height="1127.94" filterUnits="userSpaceOnUse" color-interpolation-filters="sRGB">
<feFlood flood-opacity="0" result="BackgroundImageFix"/>
<feBlend mode="normal" in="SourceGraphic" in2="BackgroundImageFix" result="shape"/>
<feGaussianBlur stdDeviation="166.519" result="effect1_foregroundBlur_3_135"/>
</filter>
<filter id="filter12_f_3_135" x="186.333" y="76.9159" width="1162.85" height="768.229" filterUnits="userSpaceOnUse" color-interpolation-filters="sRGB">
<feFlood flood-opacity="0" result="BackgroundImageFix"/>
<feBlend mode="normal" in="SourceGraphic" in2="BackgroundImageFix" result="shape"/>
<feGaussianBlur stdDeviation="77.0461" result="effect1_foregroundBlur_3_135"/>
</filter>
<filter id="filter13_f_3_135" x="648.146" y="268.282" width="334.395" height="233.874" filterUnits="userSpaceOnUse" color-interpolation-filters="sRGB">
<feFlood flood-opacity="0" result="BackgroundImageFix"/>
<feBlend mode="normal" in="SourceGraphic" in2="BackgroundImageFix" result="shape"/>
<feGaussianBlur stdDeviation="3.25995" result="effect1_foregroundBlur_3_135"/>
</filter>
<filter id="filter14_f_3_135" x="551.689" y="242.783" width="447.526" height="293.319" filterUnits="userSpaceOnUse" color-interpolation-filters="sRGB">
<feFlood flood-opacity="0" result="BackgroundImageFix"/>
<feBlend mode="normal" in="SourceGraphic" in2="BackgroundImageFix" result="shape"/>
<feGaussianBlur stdDeviation="11.4098" result="effect1_foregroundBlur_3_135"/>
</filter>
<filter id="filter15_f_3_135" x="375.04" y="213.202" width="608.307" height="386.233" filterUnits="userSpaceOnUse" color-interpolation-filters="sRGB">
<feFlood flood-opacity="0" result="BackgroundImageFix"/>
<feBlend mode="normal" in="SourceGraphic" in2="BackgroundImageFix" result="shape"/>
<feGaussianBlur stdDeviation="16.2998" result="effect1_foregroundBlur_3_135"/>
</filter>
<filter id="filter16_f_3_135" x="373.202" y="138.678" width="645.102" height="556.977" filterUnits="userSpaceOnUse" color-interpolation-filters="sRGB">
<feFlood flood-opacity="0" result="BackgroundImageFix"/>
<feBlend mode="normal" in="SourceGraphic" in2="BackgroundImageFix" result="shape"/>
<feGaussianBlur stdDeviation="44.0093" result="effect1_foregroundBlur_3_135"/>
</filter>
<filter id="filter17_f_3_135" x="231.113" y="58.8729" width="890.244" height="811.564" filterUnits="userSpaceOnUse" color-interpolation-filters="sRGB">
<feFlood flood-opacity="0" result="BackgroundImageFix"/>
<feBlend mode="normal" in="SourceGraphic" in2="BackgroundImageFix" result="shape"/>
<feGaussianBlur stdDeviation="109.208" result="effect1_foregroundBlur_3_135"/>
</filter>
<filter id="filter18_f_3_135" x="329.812" y="151.537" width="672.142" height="508.398" filterUnits="userSpaceOnUse" color-interpolation-filters="sRGB">
<feFlood flood-opacity="0" result="BackgroundImageFix"/>
<feBlend mode="normal" in="SourceGraphic" in2="BackgroundImageFix" result="shape"/>
<feGaussianBlur stdDeviation="50.5292" result="effect1_foregroundBlur_3_135"/>
</filter>
<linearGradient id="paint0_linear_3_135" x1="349.697" y1="203.259" x2="273.178" y2="499.871" gradientUnits="userSpaceOnUse">
<stop stop-color="#C4C4C4"/>
<stop offset="0.943414" stop-color="#C4C4C4" stop-opacity="0"/>
</linearGradient>
<linearGradient id="paint1_linear_3_135" x1="200.577" y1="317.745" x2="519.634" y2="627.12" gradientUnits="userSpaceOnUse">
<stop stop-color="#C4C4C4"/>
<stop offset="1" stop-color="#C4C4C4" stop-opacity="0"/>
</linearGradient>
<linearGradient id="paint2_linear_3_135" x1="747.027" y1="135.248" x2="723.747" y2="561.155" gradientUnits="userSpaceOnUse">
<stop stop-color="#C4C4C4"/>
<stop offset="1" stop-color="#C4C4C4" stop-opacity="0"/>
</linearGradient>
<linearGradient id="paint3_linear_3_135" x1="841.904" y1="361.503" x2="305.981" y2="373.997" gradientUnits="userSpaceOnUse">
<stop stop-color="#C4C4C4"/>
<stop offset="1" stop-color="#C4C4C4" stop-opacity="0"/>
</linearGradient>
</defs>
</svg>
