<svg width="1440" height="3045" viewBox="0 0 1440 3045" fill="none" xmlns="http://www.w3.org/2000/svg">
<g filter="url(#filter0_f_4_313)">
<ellipse cx="284.128" cy="440.803" rx="284.128" ry="440.803" transform="matrix(-0.337484 -1.01084 0.84895 -0.385953 200.674 1973.29)" fill="#A7C3F9"/>
</g>
<mask id="mask0_4_313" style="mask-type:alpha" maskUnits="userSpaceOnUse" x="-220" y="419" width="1381" height="1852">
<path d="M1160.05 793.049L296.198 419.605L-164.32 1306.87L-219.664 1592.03L180.101 2198.56L587.239 2270.02L920.154 1483.81L1160.05 793.049Z" fill="url(#paint0_linear_4_313)"/>
</mask>
<g mask="url(#mask0_4_313)">
<mask id="mask1_4_313" style="mask-type:alpha" maskUnits="userSpaceOnUse" x="-317" y="372" width="1486" height="1960">
<path d="M541.32 2331.28C161.035 2111.27 -296.834 1783.09 -316.393 1773.59L283.167 372.623L1168.41 785.593L541.32 2331.28Z" fill="url(#paint1_linear_4_313)"/>
</mask>
<g mask="url(#mask1_4_313)">
<path d="M52.1438 1343.71C117.26 1189.93 308.294 1139.22 430.478 1209.67C552.661 1280.12 686.645 1434.83 616.781 1599.82C582.16 1681.58 621.8 1827.95 519.823 1890C416.013 1953.17 258.891 1834.6 197.256 1799.06C75.0722 1728.61 -12.9725 1497.49 52.1438 1343.71Z" fill="#E3BFF4"/>
<g filter="url(#filter1_f_4_313)">
<path d="M61.8287 1351.58C131.664 1186.66 287.452 1129.64 382.311 1184.33C477.17 1239.03 575.307 1373.03 505.472 1537.96C470.865 1619.68 494.723 1756.9 406.369 1826.76C316.428 1897.88 196.569 1800.81 148.718 1773.21C53.8584 1718.52 -8.00701 1516.51 61.8287 1351.58Z" fill="#E3BFF4"/>
</g>
<g filter="url(#filter2_f_4_313)">
<path d="M63.9434 1346.59C142.216 1161.75 328.883 1104.79 446.014 1172.33C563.145 1239.86 687.327 1398.24 609.054 1583.08C570.267 1674.68 615.428 1839.1 511.016 1914.3C404.729 1990.84 245.736 1867.83 186.65 1833.76C69.5189 1766.22 -14.3288 1531.44 63.9434 1346.59Z" fill="#E3BFF4"/>
</g>
<g filter="url(#filter3_f_4_313)">
<path d="M111.266 1347.25C239.665 1137.34 487.652 1045.13 639.195 1132.51C790.737 1219.89 905.514 1430.19 811.642 1651.88C765.124 1761.73 870.489 1998.19 739.757 2085.2C606.676 2173.76 335.471 2001.01 259.025 1956.93C107.482 1869.55 -37.4771 1590.41 111.266 1347.25Z" fill="#E3BFF4"/>
</g>
<g filter="url(#filter4_f_4_313)">
<path d="M174.986 1309.61C276.062 1070.91 565.544 960.951 713.709 1046.38C861.873 1131.81 969.234 1348.89 868.158 1587.59C818.07 1705.88 813.799 1882.11 680.508 1980.1C544.822 2079.85 208.065 1972.47 133.323 1929.37C-14.8414 1843.94 73.9109 1548.31 174.986 1309.61Z" fill="#E3BFF4"/>
</g>
<g filter="url(#filter5_f_4_313)">
<path d="M280.686 1233.76C385.138 987.089 674.76 889.877 826.303 977.256C977.846 1064.64 1087.09 1287.99 982.642 1534.66C930.881 1656.9 648.579 1721.21 511.617 1822.92C372.195 1926.47 179.744 1773.68 103.298 1729.6C-48.2444 1642.22 176.233 1480.44 280.686 1233.76Z" fill="#E3BFF4"/>
</g>
<g filter="url(#filter6_f_4_313)">
<path d="M178.024 1405.4C269.42 1189.56 547.802 1118.89 699.345 1206.27C850.887 1293.65 966.958 1500.89 875.562 1716.73C830.271 1823.69 815.591 1976.8 686.316 2060.37C554.719 2145.43 360.489 1996.84 284.043 1952.76C132.5 1865.38 86.6288 1621.24 178.024 1405.4Z" fill="#E3BFF4"/>
</g>
</g>
</g>
<mask id="mask2_4_313" style="mask-type:alpha" maskUnits="userSpaceOnUse" x="33" y="808" width="1668" height="1356">
<path d="M33.9403 1953.1C83.5462 1461.19 146.911 833.679 147.716 808.955L1700.47 1019.21L1586.7 2163.36L33.9403 1953.1Z" fill="url(#paint2_linear_4_313)"/>
</mask>
<g mask="url(#mask2_4_313)">
<path d="M850.749 1107.68C1025.88 1131.39 1155.6 1327.54 1139.89 1485.51C1124.18 1643.49 1032.68 1841.2 844.775 1815.76C751.661 1803.15 628.103 1893.44 525.299 1799.79C420.648 1704.46 467.68 1492.47 475.604 1412.78C491.313 1254.81 675.618 1083.97 850.749 1107.68Z" fill="#FF3E80" fill-opacity="0.5"/>
<g filter="url(#filter7_f_4_313)">
<path d="M847.304 1120.93C1035.13 1146.36 1154.49 1316.02 1140.98 1451.81C1127.48 1587.6 1038.9 1756.2 851.072 1730.77C757.996 1718.17 635.607 1797.17 531.75 1714.57C426.026 1630.5 470.039 1448.76 476.851 1380.26C490.354 1244.47 659.48 1095.49 847.304 1120.93Z" fill="#FF3E80" fill-opacity="0.5"/>
</g>
<g filter="url(#filter8_f_4_313)">
<path d="M852.994 1121.7C1063.51 1150.2 1195.6 1357.34 1178.95 1524.75C1162.3 1692.16 1061.03 1901.1 850.517 1872.6C746.197 1858.47 606.421 1973.18 490.771 1873.03C373.043 1771.08 425.845 1532.48 434.242 1448.03C450.89 1280.62 642.481 1093.19 852.994 1121.7Z" fill="#FF3E80" fill-opacity="0.5"/>
</g>
<g filter="url(#filter9_f_4_313)">
<path d="M875.318 1144.81C1131.14 1221.07 1324.84 1467.36 1305.36 1663.29C1285.87 1859.22 1132.89 2053.18 880.423 2018.99C755.312 2002.05 573.245 2193.82 434.305 2076.12C292.869 1956.31 353.849 1693.74 363.678 1594.9C383.162 1398.96 578.959 1056.47 875.318 1144.81Z" fill="#FF3E80" fill-opacity="0.5"/>
</g>
<g filter="url(#filter10_f_4_313)">
<path d="M955.002 1235.97C1226.85 1272.78 1435.77 1556.91 1416.72 1748.47C1397.67 1940.04 1235.04 2127.9 963.193 2091.09C828.481 2072.85 657.646 2123.81 507.084 2006.74C353.816 1887.57 416.844 1631.31 426.453 1534.68C445.503 1343.11 683.158 1199.16 955.002 1235.97Z" fill="#FF3E80" fill-opacity="0.5"/>
</g>
<g filter="url(#filter11_f_4_313)">
<path d="M1053.2 1326.76C1334.13 1364.8 1550.3 1655.74 1530.81 1851.68C1511.33 2047.61 1343.48 2239.55 1062.55 2201.51C923.343 2182.66 746.878 2234.55 591.185 2114.58C432.695 1992.46 497.552 1730.41 507.381 1631.57C526.865 1435.64 772.276 1288.72 1053.2 1326.76Z" fill="#FF3E80" fill-opacity="0.5"/>
</g>
<g filter="url(#filter12_f_4_313)">
<path d="M845.006 1266.99C1090.81 1300.27 1276.75 1587.13 1257.27 1783.06C1237.79 1978.99 1088.29 2173.42 842.477 2140.13C720.666 2123.64 567.583 2155.73 432.564 2038.56C295.12 1919.29 355.192 1656.6 365.021 1557.76C384.505 1361.83 599.196 1233.71 845.006 1266.99Z" fill="#FF3E80" fill-opacity="0.5"/>
</g>
</g>
<mask id="mask3_4_313" style="mask-type:alpha" maskUnits="userSpaceOnUse" x="148" y="834" width="1084" height="1725">
<path d="M148.7 964.517C580.514 904.564 1051.85 839.337 1073.18 834.691L1231.68 2428.32L307.194 2558.14L148.7 964.517Z" fill="url(#paint3_linear_4_313)"/>
</mask>
<g mask="url(#mask3_4_313)">
<path d="M1030.38 1541.85C1041.9 1653.54 952.6 1761.34 863.86 1773.81C775.12 1786.27 654.002 1757.41 641.644 1637.58C635.52 1578.2 568.764 1514.43 605.678 1437.67C643.256 1359.54 765.971 1358.87 810.736 1352.58C899.476 1340.12 1018.86 1430.17 1030.38 1541.85Z" fill="#E3BFF4"/>
<g filter="url(#filter13_f_4_313)">
<path d="M1022.64 1541.58C1034.99 1661.37 966.989 1757.88 898.094 1767.56C829.199 1777.23 734.126 1744.74 721.773 1624.95C715.652 1565.6 660.373 1500.24 687.408 1424.9C714.929 1348.21 810.577 1351.34 845.331 1346.46C914.226 1336.78 1010.29 1421.8 1022.64 1541.58Z" fill="#E3BFF4"/>
</g>
<g filter="url(#filter14_f_4_313)">
<path d="M1023.01 1545.21C1036.86 1679.46 951.879 1788.87 866.809 1800.81C781.739 1812.76 664.875 1777.79 651.03 1643.53C644.169 1577.01 568.834 1505.64 603.045 1420.65C637.872 1334.13 762.98 1335.12 805.894 1329.1C890.964 1317.15 1009.17 1410.96 1023.01 1545.21Z" fill="#E3BFF4"/>
</g>
<g filter="url(#filter15_f_4_313)">
<path d="M996.832 1564.66C990.858 1733.65 883.046 1888.08 772.983 1903.53C662.919 1918.99 535.259 1851.57 518.654 1690.56C510.426 1610.77 379.891 1525.05 424.924 1422.56C470.766 1318.23 672.773 1299.56 728.294 1291.76C838.358 1276.31 1003.75 1368.89 996.832 1564.66Z" fill="#E3BFF4"/>
</g>
<g filter="url(#filter16_f_4_313)">
<path d="M973.414 1611.99C991.293 1785.36 866.156 1966.9 758.546 1982.01C650.936 1997.12 525.263 1922.88 507.384 1749.51C498.524 1663.6 446.699 1565.06 489.76 1455.46C533.594 1343.9 751.497 1261.9 805.781 1254.28C913.391 1239.17 955.535 1438.63 973.414 1611.99Z" fill="#E3BFF4"/>
</g>
<g filter="url(#filter17_f_4_313)">
<path d="M938.696 1697.88C957.172 1877.04 828.039 2051.64 717.976 2067.09C607.912 2082.55 479.274 2005.65 460.798 1826.49C451.642 1737.71 586.872 1584.24 630.803 1471.07C675.523 1355.86 828.154 1359.19 883.676 1351.4C993.739 1335.94 920.22 1518.72 938.696 1697.88Z" fill="#E3BFF4"/>
</g>
<g filter="url(#filter18_f_4_313)">
<path d="M942.302 1560.67C958.469 1717.43 827.347 1872.76 717.284 1888.21C607.22 1903.67 479.789 1838.47 463.622 1681.71C455.611 1604.02 416.606 1513.81 461.897 1413.82C508.002 1312.04 660.318 1312.32 715.839 1304.52C825.903 1289.07 926.135 1403.91 942.302 1560.67Z" fill="#E3BFF4"/>
</g>
</g>
<defs>
<filter id="filter0_f_4_313" x="-155.933" y="933.547" width="1269.88" height="1164.81" filterUnits="userSpaceOnUse" color-interpolation-filters="sRGB">
<feFlood flood-opacity="0" result="BackgroundImageFix"/>
<feBlend mode="normal" in="SourceGraphic" in2="BackgroundImageFix" result="shape"/>
<feGaussianBlur stdDeviation="124.268" result="effect1_foregroundBlur_4_313"/>
</filter>
<filter id="filter1_f_4_313" x="21.9287" y="1154.25" width="517.113" height="707.993" filterUnits="userSpaceOnUse" color-interpolation-filters="sRGB">
<feFlood flood-opacity="0" result="BackgroundImageFix"/>
<feBlend mode="normal" in="SourceGraphic" in2="BackgroundImageFix" result="shape"/>
<feGaussianBlur stdDeviation="4.97072" result="effect1_foregroundBlur_4_313"/>
</filter>
<filter id="filter2_f_4_313" x="-1.33248" y="1110.12" width="669.678" height="863.63" filterUnits="userSpaceOnUse" color-interpolation-filters="sRGB">
<feFlood flood-opacity="0" result="BackgroundImageFix"/>
<feBlend mode="normal" in="SourceGraphic" in2="BackgroundImageFix" result="shape"/>
<feGaussianBlur stdDeviation="17.3975" result="effect1_foregroundBlur_4_313"/>
</filter>
<filter id="filter3_f_4_313" x="-0.772213" y="1049.97" width="896.09" height="1109.84" filterUnits="userSpaceOnUse" color-interpolation-filters="sRGB">
<feFlood flood-opacity="0" result="BackgroundImageFix"/>
<feBlend mode="normal" in="SourceGraphic" in2="BackgroundImageFix" result="shape"/>
<feGaussianBlur stdDeviation="24.8536" result="effect1_foregroundBlur_4_313"/>
</filter>
<filter id="filter4_f_4_313" x="-79.4868" y="883.42" width="1121.44" height="1272.07" filterUnits="userSpaceOnUse" color-interpolation-filters="sRGB">
<feFlood flood-opacity="0" result="BackgroundImageFix"/>
<feBlend mode="normal" in="SourceGraphic" in2="BackgroundImageFix" result="shape"/>
<feGaussianBlur stdDeviation="67.1047" result="effect1_foregroundBlur_4_313"/>
</filter>
<filter id="filter5_f_4_313" x="-280.732" y="612.714" width="1637.67" height="1578.56" filterUnits="userSpaceOnUse" color-interpolation-filters="sRGB">
<feFlood flood-opacity="0" result="BackgroundImageFix"/>
<feBlend mode="normal" in="SourceGraphic" in2="BackgroundImageFix" result="shape"/>
<feGaussianBlur stdDeviation="166.519" result="effect1_foregroundBlur_4_313"/>
</filter>
<filter id="filter6_f_4_313" x="-22.9462" y="1015.67" width="1084.95" height="1224.61" filterUnits="userSpaceOnUse" color-interpolation-filters="sRGB">
<feFlood flood-opacity="0" result="BackgroundImageFix"/>
<feBlend mode="normal" in="SourceGraphic" in2="BackgroundImageFix" result="shape"/>
<feGaussianBlur stdDeviation="77.0461" result="effect1_foregroundBlur_4_313"/>
</filter>
<filter id="filter7_f_4_313" x="452.056" y="1108.12" width="699.906" height="654.587" filterUnits="userSpaceOnUse" color-interpolation-filters="sRGB">
<feFlood flood-opacity="0" result="BackgroundImageFix"/>
<feBlend mode="normal" in="SourceGraphic" in2="BackgroundImageFix" result="shape"/>
<feGaussianBlur stdDeviation="4.97072" result="effect1_foregroundBlur_4_313"/>
</filter>
<filter id="filter8_f_4_313" x="380.404" y="1084.01" width="834.752" height="865.252" filterUnits="userSpaceOnUse" color-interpolation-filters="sRGB">
<feFlood flood-opacity="0" result="BackgroundImageFix"/>
<feBlend mode="normal" in="SourceGraphic" in2="BackgroundImageFix" result="shape"/>
<feGaussianBlur stdDeviation="17.3975" result="effect1_foregroundBlur_4_313"/>
</filter>
<filter id="filter9_f_4_313" x="292.501" y="1080.82" width="1063.91" height="1083.43" filterUnits="userSpaceOnUse" color-interpolation-filters="sRGB">
<feFlood flood-opacity="0" result="BackgroundImageFix"/>
<feBlend mode="normal" in="SourceGraphic" in2="BackgroundImageFix" result="shape"/>
<feGaussianBlur stdDeviation="24.8536" result="effect1_foregroundBlur_4_313"/>
</filter>
<filter id="filter10_f_4_313" x="271.296" y="1095.99" width="1280.84" height="1133.96" filterUnits="userSpaceOnUse" color-interpolation-filters="sRGB">
<feFlood flood-opacity="0" result="BackgroundImageFix"/>
<feBlend mode="normal" in="SourceGraphic" in2="BackgroundImageFix" result="shape"/>
<feGaussianBlur stdDeviation="67.1047" result="effect1_foregroundBlur_4_313"/>
</filter>
<filter id="filter11_f_4_313" x="152.919" y="987.697" width="1712.15" height="1551.71" filterUnits="userSpaceOnUse" color-interpolation-filters="sRGB">
<feFlood flood-opacity="0" result="BackgroundImageFix"/>
<feBlend mode="normal" in="SourceGraphic" in2="BackgroundImageFix" result="shape"/>
<feGaussianBlur stdDeviation="166.519" result="effect1_foregroundBlur_4_313"/>
</filter>
<filter id="filter12_f_4_313" x="189.437" y="1107.64" width="1223.33" height="1190.32" filterUnits="userSpaceOnUse" color-interpolation-filters="sRGB">
<feFlood flood-opacity="0" result="BackgroundImageFix"/>
<feBlend mode="normal" in="SourceGraphic" in2="BackgroundImageFix" result="shape"/>
<feGaussianBlur stdDeviation="77.0461" result="effect1_foregroundBlur_4_313"/>
</filter>
<filter id="filter13_f_4_313" x="673.488" y="1339.19" width="357.136" height="436.49" filterUnits="userSpaceOnUse" color-interpolation-filters="sRGB">
<feFlood flood-opacity="0" result="BackgroundImageFix"/>
<feBlend mode="normal" in="SourceGraphic" in2="BackgroundImageFix" result="shape"/>
<feGaussianBlur stdDeviation="3.25995" result="effect1_foregroundBlur_4_313"/>
</filter>
<filter id="filter14_f_4_313" x="571.358" y="1305.25" width="475.967" height="520.566" filterUnits="userSpaceOnUse" color-interpolation-filters="sRGB">
<feFlood flood-opacity="0" result="BackgroundImageFix"/>
<feBlend mode="normal" in="SourceGraphic" in2="BackgroundImageFix" result="shape"/>
<feGaussianBlur stdDeviation="11.4098" result="effect1_foregroundBlur_4_313"/>
</filter>
<filter id="filter15_f_4_313" x="382.9" y="1257.5" width="646.742" height="680.784" filterUnits="userSpaceOnUse" color-interpolation-filters="sRGB">
<feFlood flood-opacity="0" result="BackgroundImageFix"/>
<feBlend mode="normal" in="SourceGraphic" in2="BackgroundImageFix" result="shape"/>
<feGaussianBlur stdDeviation="16.2998" result="effect1_foregroundBlur_4_313"/>
</filter>
<filter id="filter16_f_4_313" x="384.854" y="1165.45" width="678.297" height="906.492" filterUnits="userSpaceOnUse" color-interpolation-filters="sRGB">
<feFlood flood-opacity="0" result="BackgroundImageFix"/>
<feBlend mode="normal" in="SourceGraphic" in2="BackgroundImageFix" result="shape"/>
<feGaussianBlur stdDeviation="44.0093" result="effect1_foregroundBlur_4_313"/>
</filter>
<filter id="filter17_f_4_313" x="241.938" y="1132.06" width="922.331" height="1155.38" filterUnits="userSpaceOnUse" color-interpolation-filters="sRGB">
<feFlood flood-opacity="0" result="BackgroundImageFix"/>
<feBlend mode="normal" in="SourceGraphic" in2="BackgroundImageFix" result="shape"/>
<feGaussianBlur stdDeviation="109.208" result="effect1_foregroundBlur_4_313"/>
</filter>
<filter id="filter18_f_4_313" x="339.316" y="1202.07" width="705.405" height="789.413" filterUnits="userSpaceOnUse" color-interpolation-filters="sRGB">
<feFlood flood-opacity="0" result="BackgroundImageFix"/>
<feBlend mode="normal" in="SourceGraphic" in2="BackgroundImageFix" result="shape"/>
<feGaussianBlur stdDeviation="50.5292" result="effect1_foregroundBlur_4_313"/>
</filter>
<linearGradient id="paint0_linear_4_313" x1="353.456" y1="1208.53" x2="122.506" y2="1708.44" gradientUnits="userSpaceOnUse">
<stop stop-color="#C4C4C4"/>
<stop offset="0.943414" stop-color="#C4C4C4" stop-opacity="0"/>
</linearGradient>
<linearGradient id="paint1_linear_4_313" x1="193.783" y1="1428.05" x2="706.355" y2="1705.6" gradientUnits="userSpaceOnUse">
<stop stop-color="#C4C4C4"/>
<stop offset="1" stop-color="#C4C4C4" stop-opacity="0"/>
</linearGradient>
<linearGradient id="paint2_linear_4_313" x1="778.905" y1="1078.11" x2="699.487" y2="1889.46" gradientUnits="userSpaceOnUse">
<stop stop-color="#C4C4C4"/>
<stop offset="1" stop-color="#C4C4C4" stop-opacity="0"/>
</linearGradient>
<linearGradient id="paint3_linear_4_313" x1="880.496" y1="1511.96" x2="306.432" y2="1519.43" gradientUnits="userSpaceOnUse">
<stop stop-color="#C4C4C4"/>
<stop offset="1" stop-color="#C4C4C4" stop-opacity="0"/>
</linearGradient>
</defs>
</svg>
